<svg xmlns="http://www.w3.org/2000/svg" width="201.377" height="61.568" viewBox="0 0 201.377 61.568">
  <g id="Group_57405" data-name="Group 57405" transform="translate(-10679.41 17918)">
    <g id="_3005514969904" transform="translate(10679.41 -17918)">
      <path id="Path_13243" data-name="Path 13243" d="M591.019,559.625a6.906,6.906,0,0,0,1.794,4.725,5.42,5.42,0,0,0,1.823,1.44,3.693,3.693,0,0,0,2.755.049c2-.72,3.746-3.2,4.854-4.924a20.336,20.336,0,0,1,1.255-2c0,.394-.069.392-.081.792-.009.271-.009.61,0,.881a6.123,6.123,0,0,0,1.716,3.769,4.506,4.506,0,0,0,5.122,1.474c2.5-1.022,4.949-3.855,6.611-6.11a5.323,5.323,0,0,1,.783-1.045c0,2.136-.271,3.677,1.569,5.586,3.6,3.734,6.5,1.25,9.383-1.63a37.012,37.012,0,0,0,3.173-3.985.768.768,0,0,1,.107-.13,7.491,7.491,0,0,0,.288,2.177,7.37,7.37,0,0,0,1.8,3.13c3.873,3.832,8.445,2.246,12.237-.841l1.941-1.8a5.592,5.592,0,0,1,.61-.662c.251-.245.334-.4.559-.636A22,22,0,0,0,651,557.751c.366-.5.668-.965,1-1.463.363-.547.8-1.054.633-1.751-.89-.207-1.175.507-1.624,1.08-.147.187-.276.363-.423.53a16.536,16.536,0,0,1-2.519,2.252c-2.4,1.808-6.657,4.84-9.582,4.889a1.975,1.975,0,0,1-1.987-.881,3.5,3.5,0,0,1-.308-.648,4.663,4.663,0,0,1-.15-1.713,15.436,15.436,0,0,0,.216-1.771,37.614,37.614,0,0,0,5.781-1.693,12.471,12.471,0,0,0,2.027-.993l1.31-.916a6.614,6.614,0,0,0,2.741-4.1,10.248,10.248,0,0,0,.15-1.362,6.382,6.382,0,0,0-.613-2.416c-1.805-3.57-4.532-3.881-7.952-2.174a9.751,9.751,0,0,0-1.834,1.186,15.392,15.392,0,0,0-4,5.07,18.97,18.97,0,0,0-1.6,4.437c-.17.772-.109.44-.561.95a5.974,5.974,0,0,1-.72.792l-1.587,1.434a27.513,27.513,0,0,1-3.334,2.706c-.875.6-2.917,2.3-4.04,1.687-1.546-.846.8-8.934,1.108-10.026.21-.757.959-.052,3.038-1.491l1.238-.99a23.281,23.281,0,0,0,4.739-6.628c1.29-2.577,2.911-6.277,2.675-9.406a6.509,6.509,0,0,0-2.007-4.034,2.715,2.715,0,0,0-3.213-.633,3.966,3.966,0,0,0-1.535,1.486,68.91,68.91,0,0,0-6.7,12.934,61.537,61.537,0,0,0-2.283,6.784l-.867,3.662a10.816,10.816,0,0,1-.245,1.267,32.317,32.317,0,0,1-3.066,2.974c-1.241.962-6.291,5.664-7.351,3.783-.763-1.35.6-7.06,1.183-8.914a6.881,6.881,0,0,0,.328-1.183c1.661,0,3.357-1.241,4.474-2.364.15-.153.25-.245.4-.4a19.245,19.245,0,0,0,2.657-3.464c.426-.723.87-1.417,1.244-2.177,1.348-2.721,3.57-7.685,2.606-10.768-.455-1.46-1.575-3.334-3.1-3.821-1.892-.6-3.17,1.2-4.051,2.574-.469.728-.887,1.4-1.333,2.165l-.913,1.633a31.844,31.844,0,0,0-1.506,2.865c-.357.809-.717,1.506-1.068,2.352s-.68,1.538-1.022,2.4l-1.635,4.405c-.086.236-.118.42-.2.677l-1.716,6.87c-.121.685-1.379,1.9-1.894,2.482l-1.687,1.73c-1.065.806-3.124,3.328-4.457,3.34-.593,0-.6-.671-.533-1.172a19.535,19.535,0,0,1,1.489-5.43l2.758-5.908c.4-.8.76-1.468,1.117-2.3.305-.714.93-1.679.377-2.637-.78-1.35-3.723-2.764-4.451-1.276-.392.8-.72,1.552-1.074,2.344-.694,1.566-1.494,3.153-2.154,4.762-.478,1.166-1.025,2.522-1.411,3.757-.369,1.172-1.106,1.641-1.828,2.545a25.193,25.193,0,0,1-2.568,2.6l-.9.852c-.636.492-2.41,2.318-3.233,1.794-.343-.219-.109-2.079-.081-2.4a16.089,16.089,0,0,1,.564-2.856c.248-.878.521-1.811.852-2.646a68.372,68.372,0,0,1,3.573-7.558l.933-1.69c.458-.913-.5-1.8-.993-2.168a4.255,4.255,0,0,0-2.485-.907c-1.2.081-1.206.936-1.906,2.381l-1.88,4.16c-1.987,4.083-.233,2.373-3.579,6.838l-2.252,2.917a28.15,28.15,0,0,1-1.941,2.352c-.458.449-.8.907-1.3,1.319a1.576,1.576,0,0,1-1.18.567c-.645-.962-.178-2.894.167-3.965.2-.6.349-1.189.593-1.794.7-1.733,1.4-3.418,2.231-5.082.559-1.111,1.1-2.1,1.6-3.256.446-1.042,1.488-2.326.872-3.53a4.118,4.118,0,0,0-2.925-1.923c-1.69-.187-1.656.821-2.4,2.43l-2.277,4.958a38.272,38.272,0,0,0-1.895,5.341c-.809,2.951-1.062,5.016,1,7.547,1.3,1.6,2.787,2.689,4.828,1.866,2.329-.936,4.135-4.178,5.2-6.329l.239-.4a7.386,7.386,0,0,0,.288,2.894c1.063,3.049,4.25,5.646,7.518,3a13.8,13.8,0,0,0,1.6-1.584c.15-.17.2-.256.36-.438a10.177,10.177,0,0,0,.988-1.4c.216-.337.415-.619.639-.953a9.226,9.226,0,0,1,.619-.97Zm8.667-19.636a.889.889,0,0,0,.406.786c1.011.533,2.94-.173,3.7-1.137a4.282,4.282,0,0,0,1.382-2.83c0-1.3-1.768-2.384-3.179-2.384-1.941,0-1.52.726-2.047,3.919A11.506,11.506,0,0,0,599.686,539.989ZM451.543,529.414a2.975,2.975,0,0,0,.032,2.433c.815,2.024,3.639,3.366,5.773,3.372l1.745.083c2.591.213,7.414,0,10.1,0a16.759,16.759,0,0,1-1.169,1.612A48.031,48.031,0,0,0,464.9,542.3c-1.955,3.907-2.747,5.848-4.339,9.813-1.1,2.732-2.925,7.708-3.821,10.411l-1.379,4.342c0,1.419,3.222,2.358,4.61,1.512.36-.219.438-.469.6-.907l4.7-13.512c.271-.806.573-1.48.835-2.269.737-2.22,3.351-8.488,4.469-10.717l1.29-2.444c.118-.2.173-.34.276-.518.173-.3.371-.633.57-.941.415-.648.838-1.224,1.255-1.846,1.7,0,8.364.276,7.809-2.954a2.768,2.768,0,0,0-.754-1.474,4.6,4.6,0,0,0-1.2-1.025c-1.3-.783-1.892-.648-3.455-.417A8.072,8.072,0,0,0,472,532.063c-.285.288-.282.251-.772.17-.714-.115-4.166-.155-5.819-.389-3.613-.5-8.914-.893-12.268-1.961a4.871,4.871,0,0,0-1.6-.469Zm23.774,22.66c.115-.5.812-2.139,1.042-2.773l1.06-2.761c.484-1.739-3.271-3.752-4.284-2.531a13.518,13.518,0,0,0-.789,1.756c-.576,1.287-1.512,4.1-2.047,5.583-.112.308-.21.584-.343.93-1.382,3.6-2.781,7.708-4.034,11.313a1.131,1.131,0,0,0-.04,1.016,2.915,2.915,0,0,0,1.46,1.086,4.043,4.043,0,0,0,2.113.317c.812-.2.916-.636,1.221-1.322.538-1.2,1.186-3.3,1.647-4.713.389-1.183,1.851-2.629,2.675-3.685l4.112-4.794c.219-.225.438-.4.636-.636l2.511-2.577c.507-.426.941-.9,1.408-1.218-.04.489-.864,1.86-1.146,3.228-.561,2.707,1.586,4.244,3.97,4.682a5.412,5.412,0,0,0,3.536-.832,23.411,23.411,0,0,0-.694,3.043c-.429,2.56-.7,4.566.965,6.783.9,1.2,2.609,2.525,4.371,1.972,2.131-.668,3.841-4.307,4.791-6.1l.187-.291a6.555,6.555,0,0,0,4.209,6.444c2.108.55,4.215-1.281,5.252-2.629.2-.259.383-.455.6-.749a5.331,5.331,0,0,1,.59-.76c-.348,1.5-1.319,2.3-.184,3.2a4.343,4.343,0,0,0,3.461.944c.786-.248.872-1.106,1.46-1.88.184-.242.3-.392.478-.634l7.521-10.452c.291-.386,1.748-2.4,1.975-2.554l-1.2,3.328c-1.189,3.579-2.45,7.641.547,10.6,1.417,1.4,2.7,2.22,4.895,1.276a11.544,11.544,0,0,0,3.553-3.363c.821-1.247,12.237-17.3-.418-3.277-.789.855-3.706,3.68-4.863,3.89-.9.161-.682-.481-.682-1.25,0-3.7,2.116-8.448,3.789-11.793.124-.242.193-.392.317-.636l1.7-3.153c.291-.564.561-.642.216-1.408a4.066,4.066,0,0,0-2.133-1.762,2.891,2.891,0,0,0-1.506-.259c-.668.084-.8.441-1.212.783l-.991.916a83.911,83.911,0,0,0-8.56,11,8.181,8.181,0,0,1-.841,1.143c.035-.406,3.311-8.62,3.688-9.666a1.436,1.436,0,0,0-.083-1.333c-.91-1.6-3.72-2.508-4.371-1.451a5.486,5.486,0,0,0-.242.553l-2.977,7.915a15.415,15.415,0,0,1-1.48,3.527l-1.552,1.788a32.015,32.015,0,0,1-2.5,2.508l-1.759,1.578a11.452,11.452,0,0,1-.979.691,1.5,1.5,0,0,1-1.339.253c-.947-4.071,5.312-13.982,5.836-16.029a2.487,2.487,0,0,0-1.4-2.562c-.806-.518-2.442-1.051-3.084-.331a5.177,5.177,0,0,0-.636,1.431c-.354-.1-.717-.6-.976-.858a9.271,9.271,0,0,0-1.54-1.16,4.688,4.688,0,0,0-2.255-.61c-3.985,0-6.625,3.513-8.217,6.735a4.906,4.906,0,0,1-1.912,1.825c-.484.322-1.912,1.227-2.753.826-.783-.786,2.957-6.683,2.925-7.218a2.374,2.374,0,0,0-.314-.881c-1.16-1.791-4.578-2.116-6.657-.559a30.989,30.989,0,0,0-5.678,5.928c-.19.233-.3.38-.487.628s-.348.441-.524.668l-1.031,1.353Zm28.637-5.237s-3.752-2.41-7.394,4.152-4.126,12.217-3.349,12,7.9-9.62,9.323-12.887Zm133.22,8.782s1.5-5.249,4.581-6.965,4.823-.372,2.223,2.787A14.14,14.14,0,0,1,637.174,555.618Zm-13.368-5.836s6.778-16.42,7.342-15.082.268,4.713-1.984,9.4S623.805,549.781,623.805,549.781Zm-14.036,0s6.778-16.42,7.342-15.082.265,4.713-1.984,9.4S609.769,549.781,609.769,549.781Z" transform="translate(-451.294 -528.792)" fill="#fff" fill-rule="evenodd"/>
      <path id="Path_13244" data-name="Path 13244" d="M777.33,561.179a.276.276,0,0,1,.276.138c.035.058.115.248.256.556a2.508,2.508,0,0,1,.207.556c0,1.794-7.374,9.925-12.553,6.913a14.8,14.8,0,0,1-2.614-1.918,17,17,0,0,1-1.964-2.1,6.357,6.357,0,0,1-.927-1.434c-.06.032-.285.193-.671.487s-.823.616-1.316.97a12.373,12.373,0,0,1-1.549.947,3.125,3.125,0,0,1-1.365.418,2.955,2.955,0,0,1-1.411-.464,10.358,10.358,0,0,1-1.549-1.086,12.968,12.968,0,0,1-1.319-1.273,3.784,3.784,0,0,1-.717-1.016,2.609,2.609,0,0,0-.671-.138,12.01,12.01,0,0,1-3.516-1.181,6.676,6.676,0,0,1-1.918-1.5,8.263,8.263,0,0,1-1.48-2.427,9.432,9.432,0,0,1-.6-3.585,14.4,14.4,0,0,1,1.2-5.433,30.831,30.831,0,0,1,3.213-5.851,43.185,43.185,0,0,1,4.624-5.6,45.023,45.023,0,0,1,5.387-4.739,29.97,29.97,0,0,1,5.551-3.305,12.562,12.562,0,0,1,5.134-1.25,13.917,13.917,0,0,1,3.121.369,9.4,9.4,0,0,1,2.914,1.2,6.928,6.928,0,0,1,2.151,2.128,5.621,5.621,0,0,1,.832,3.1,22.537,22.537,0,0,1-.924,6.311,38.374,38.374,0,0,1-2.338,6.061,48.914,48.914,0,0,1-3.029,5.364q-1.62,2.475-3.029,4.322t-2.381,2.937q-.972,1.088-1.016,1.134c5.571,9.487,9,3.671,13.616.438.1-.072.245-.032.371-.046Zm-20.647,1.134a2.315,2.315,0,0,0,.694-.115,6.963,6.963,0,0,0,.694-.256,2.9,2.9,0,0,0,.553-.3c.155-.107.233-.207.233-.3a7.588,7.588,0,0,1-.349-1c-.107-.386-.2-.754-.276-1.109s-.147-.656-.207-.9a3.365,3.365,0,0,1-.092-.418l-3.377,2.73a1.121,1.121,0,0,0,.138.369,2.127,2.127,0,0,0,.417.556,3.391,3.391,0,0,0,.671.51A1.755,1.755,0,0,0,756.683,562.313Zm4.947-3.469a12.526,12.526,0,0,0,1.549-1.48q1.088-1.153,2.453-2.911t2.8-4a45.413,45.413,0,0,0,2.635-4.739,33.132,33.132,0,0,0,1.966-5.134,18.785,18.785,0,0,0,.763-5.226,8.319,8.319,0,0,0-.256-2.266,3.088,3.088,0,0,0-.74-1.365,2.588,2.588,0,0,0-1.132-.671,5.02,5.02,0,0,0-1.388-.184,10.788,10.788,0,0,0-4.854,1.25,23.657,23.657,0,0,0-4.88,3.305,38.179,38.179,0,0,0-4.532,4.67,39.991,39.991,0,0,0-3.746,5.364,32.562,32.562,0,0,0-2.542,5.413,14.381,14.381,0,0,0-.95,4.785,9.307,9.307,0,0,0,.21,1.756,2.723,2.723,0,0,0,.714,1.526,6.6,6.6,0,0,0,.118-1.27q.022-.9.207-2.358a25.922,25.922,0,0,1,.717-3.423,28.835,28.835,0,0,1,1.641-4.394,41.567,41.567,0,0,1,2.96-5.272,55.479,55.479,0,0,1,4.67-6.081,6.746,6.746,0,0,1,2.776-1.967,8.992,8.992,0,0,1,3.1-.576,4.061,4.061,0,0,1,1.065.115.483.483,0,0,1,.415.484,69.43,69.43,0,0,0-5.387,6.452,52.238,52.238,0,0,0-3.608,5.62,38.176,38.176,0,0,0-2.2,4.67,28.533,28.533,0,0,0-1.132,3.585,17,17,0,0,0-.418,2.381q-.069.877-.069,1.062v.046a1.749,1.749,0,0,0,.533-.346q.436-.35.993-.786t1.039-.878a2.824,2.824,0,0,0,.625-.717v-.046a2.64,2.64,0,0,1,.092-.6,7.09,7.09,0,0,1,.233-.74,2.589,2.589,0,0,1,.323-.625.518.518,0,0,1,.417-.253q.648,0,.648.786v.23a4.261,4.261,0,0,0,.092.556,8.526,8.526,0,0,0,.323,1.132,9.993,9.993,0,0,0,.671,1.48,12.043,12.043,0,0,0,1.086,1.641Z" transform="translate(-658.249 -527.86)" fill="#fff"/>
    </g>
    <text id="Appointments_made_easy" data-name="Appointments made easy" transform="translate(10779.41 -17859.432)" fill="#fff" font-size="11" font-family="SegoeUI-Bold, Segoe UI" font-weight="700" letter-spacing="0.02em"><tspan x="-77.699" y="0">APPOINTMENTS MADE EASY</tspan></text>
  </g>
</svg>
