<svg xmlns="http://www.w3.org/2000/svg" width="30.511" height="39.525" viewBox="0 0 30.511 39.525">
  <g id="Group_57972" data-name="Group 57972" transform="translate(-10679.41 17917.623)">
    <g id="_3005514969904" transform="translate(10679.41 -17918)">
      <path id="Path_13243" data-name="Path 13243" d="M451.543,529.414a2.975,2.975,0,0,0,.032,2.433c.815,2.024,3.639,3.366,5.773,3.372l1.745.083c2.591.213,7.414,0,10.1,0a16.759,16.759,0,0,1-1.169,1.612A48.031,48.031,0,0,0,464.9,542.3c-1.955,3.907-2.747,5.848-4.339,9.813-1.1,2.732-2.925,7.708-3.821,10.411l-1.379,4.342c0,1.419,3.222,2.358,4.61,1.512.36-.219.438-.469.6-.907l4.7-13.512c.271-.806.573-1.48.835-2.269.737-2.22,3.351-8.488,4.469-10.717l1.29-2.444c.118-.2.173-.34.276-.518.173-.3.371-.633.57-.941.415-.648.838-1.224,1.255-1.846,1.7,0,8.364.276,7.809-2.954a2.768,2.768,0,0,0-.754-1.474,4.6,4.6,0,0,0-1.2-1.025c-1.3-.783-1.892-.648-3.455-.417A8.072,8.072,0,0,0,472,532.063c-.285.288-.282.251-.772.17-.714-.115-4.166-.155-5.819-.389-3.613-.5-8.914-.893-12.268-1.961a4.871,4.871,0,0,0-1.6-.469Z" transform="translate(-451.294 -528.792)" fill="#fff" fill-rule="evenodd"/>
    </g>
  </g>
</svg>
