<svg id="Group_51573" data-name="Group 51573" xmlns="http://www.w3.org/2000/svg" width="39.839" height="44.891" viewBox="0 0 39.839 44.891">
  <path id="Path_81" data-name="Path 81" d="M397.6,408.485l4-5.413a3.759,3.759,0,0,1,6.045,4.47l-5.538,7.491s-2.695,5.008-2.985,9.262a31,31,0,0,0-.075,3.551,10.163,10.163,0,0,0,4.113-3.284l9.726-13.143a10.276,10.276,0,0,0-16.525-12.22l-4,5.409a3.259,3.259,0,0,0,5.24,3.877Z" transform="translate(-375.058 -383.01)" fill="#fff" fill-rule="evenodd"/>
  <path id="Path_82" data-name="Path 82" d="M366.624,408.733l-4.077-5.354a3.758,3.758,0,0,0-5.978,4.556l5.641,7.408s2.765,4.969,3.115,9.219a30.949,30.949,0,0,1,.122,3.551,10.183,10.183,0,0,1-4.156-3.225l-9.906-13.005a10.275,10.275,0,0,1,16.348-12.452l1.332,1.929,1.32-1.654a3.4,3.4,0,0,0,5.161,3.979l-3.783,5.114c.027-.039.055-.079.079-.118a2.988,2.988,0,0,1-.648.672A3.261,3.261,0,0,1,366.624,408.733Zm4.937-3.751c.016.02.028.039.043.059C371.589,405.021,371.577,405,371.562,404.982Z" transform="translate(-349.29 -383.222)" fill="#fff" fill-rule="evenodd"/>
  <circle id="Ellipse_3" data-name="Ellipse 3" cx="3.795" cy="3.795" r="3.795" transform="matrix(0.804, 0.595, -0.595, 0.804, 9.366, 0.053)" fill="#fff"/>
  <circle id="Ellipse_4" data-name="Ellipse 4" cx="3.795" cy="3.795" r="3.795" transform="matrix(0.804, 0.595, -0.595, 0.804, 29.717, 0)" fill="#fff"/>
</svg>
