<svg xmlns="http://www.w3.org/2000/svg" width="248.639" height="156.493" viewBox="0 0 248.639 156.493">
  <g id="Group_54652" data-name="Group 54652" transform="translate(-835.361 -237.385)">
    <g id="Group_51574" data-name="Group 51574" transform="translate(647.576 -127.028)">
      <g id="Group_51573" data-name="Group 51573" transform="translate(282.407 364.413)">
        <path id="Path_81" data-name="Path 81" d="M400.494,415.094l5.97-8.073a5.607,5.607,0,0,1,9.017,6.667l-8.261,11.173s-4.019,7.47-4.453,13.815a46.25,46.25,0,0,0-.111,5.3,15.158,15.158,0,0,0,6.134-4.9l14.506-19.6a15.327,15.327,0,0,0-24.648-18.227l-5.97,8.067a4.861,4.861,0,0,0,7.816,5.783Z" transform="translate(-366.865 -377.096)" fill="#fff" fill-rule="evenodd"/>
        <path id="Path_82" data-name="Path 82" d="M375.145,415.292l-6.081-7.986a5.606,5.606,0,0,0-8.917,6.8l8.413,11.05s4.125,7.411,4.646,13.75a46.141,46.141,0,0,1,.182,5.3,15.185,15.185,0,0,1-6.2-4.81l-14.776-19.4A15.326,15.326,0,0,1,376.8,401.419l1.986,2.877,1.969-2.467a5.067,5.067,0,0,0,7.7,5.935l-5.642,7.628c.041-.059.082-.117.117-.176a4.452,4.452,0,0,1-.967,1,4.864,4.864,0,0,1-6.814-.926Zm7.364-5.6c.023.029.041.059.064.088C382.55,409.756,382.533,409.726,382.509,409.7Z" transform="translate(-349.29 -377.241)" fill="#fff" fill-rule="evenodd"/>
        <circle id="Ellipse_3" data-name="Ellipse 3" cx="5.661" cy="5.661" r="5.661" transform="matrix(0.804, 0.595, -0.595, 0.804, 13.97, 0.079)" fill="#fff"/>
        <circle id="Ellipse_4" data-name="Ellipse 4" cx="5.661" cy="5.661" r="5.661" transform="matrix(0.804, 0.595, -0.595, 0.804, 44.325, 0)" fill="#fff"/>
      </g>
      <path id="Path_83" data-name="Path 83" d="M213.01,485.829q1.362-2.461,2.525-4.787c.773-1.553,1.488-3.152,2.133-4.787a13.885,13.885,0,0,0,.809-2.361,13.216,13.216,0,0,0,.357-2.49c-.217-.217-.422-.27-.615-.164s-.357.205-.486.293a16.125,16.125,0,0,0-2.976,1.84q-1.353,1.072-2.654,2.232a58.206,58.206,0,0,0-4.945,5.05q-2.3,2.654-4.371,5.56-1.872,2.592-3.521,5.244t-3.14,5.56a41.381,41.381,0,0,0-2.133,4.916,35.073,35.073,0,0,0-1.424,5.244,12.58,12.58,0,0,0-.193,4.916,6.366,6.366,0,0,0,1.582,3.656,6.706,6.706,0,0,0,3.527,1.974,12.982,12.982,0,0,0,7.441-.258,43.771,43.771,0,0,0,5.3-2.168,27.858,27.858,0,0,0,4.851-3.011q2.267-1.679,4.306-3.492a50.961,50.961,0,0,0,3.914-3.884,35.722,35.722,0,0,0,2.718-3.328,27.1,27.1,0,0,0,2.2-3.656,15.335,15.335,0,0,0,1.066-2.361,13.455,13.455,0,0,0,.615-2.49c.041-.258.088-.521.129-.779a5.334,5.334,0,0,1,.193-.773,1.975,1.975,0,0,1,.422-.844,1.233,1.233,0,0,1,.809-.387,1.311,1.311,0,0,1,1,.129,2.6,2.6,0,0,1,.744.715,3.978,3.978,0,0,1,.65,2.713c-.088.562-.2,1.113-.328,1.652a6.16,6.16,0,0,1-.58,1.517q-.712,1.23-1.359,2.426a20.881,20.881,0,0,1-1.424,2.3,55.545,55.545,0,0,1-7.728,8.607,64.531,64.531,0,0,1-9.286,6.925,34.807,34.807,0,0,1-7.57,3.427,17.946,17.946,0,0,1-8.929.709,9.663,9.663,0,0,1-8.021-6.726,12.41,12.41,0,0,1-.809-3.785,20.745,20.745,0,0,1,.164-3.849,40.571,40.571,0,0,1,3.363-11.325,81.392,81.392,0,0,1,6.339-10.9,72.6,72.6,0,0,1,8.021-9.673,39.88,39.88,0,0,1,7.569-5.953,13.479,13.479,0,0,1,1.488-.809c.521-.234,1.06-.486,1.617-.744a7.917,7.917,0,0,1,1.945-.58,3.4,3.4,0,0,1,3.17.551,3.577,3.577,0,0,1,.9,3.134,21.612,21.612,0,0,1-.422,2.754,16.83,16.83,0,0,1-.809,2.619c-.3.82-.609,1.629-.937,2.426a24.988,24.988,0,0,1-1.066,2.3q-1.292,2.654-2.654,5.208t-2.713,5.144a5.178,5.178,0,0,1-.615.937c-.24.275-.486.545-.744.808a1.718,1.718,0,0,1-2.074.387,1.876,1.876,0,0,1-1.224-1.939,8.261,8.261,0,0,1,1.289-4.464,2.237,2.237,0,0,1,1.1-.873,4.463,4.463,0,0,1,1.488-.228Z" transform="translate(0 -42.454)" fill="#fff"/>
      <path id="_1" data-name="1" d="M275.295,530.983c-.393.9-.756,1.764-1.1,2.584l-1.037,2.461a13.63,13.63,0,0,1-3.492,4.529,5.728,5.728,0,0,1-2.461,1.389,4.22,4.22,0,0,1-2.326-.064,4.02,4.02,0,0,1-1.91-1.359,5.923,5.923,0,0,1-1.131-2.554,10.265,10.265,0,0,1-.129-3.234,19.09,19.09,0,0,1,2.654-8.15,11.906,11.906,0,0,1,1.324-1.816,9.673,9.673,0,0,1,1.652-1.482,4.5,4.5,0,0,1,1.547-.908,2.766,2.766,0,0,1,2.267.164,2.875,2.875,0,0,1,1.23,1.9.673.673,0,0,1,.064.293.614.614,0,0,0,.064.293c.346.211.68.41,1,.58a2.364,2.364,0,0,1,.809.715,4.125,4.125,0,0,1,.58.937c.176.363.369.744.586,1.131a24.584,24.584,0,0,0,4.142-.229,15.752,15.752,0,0,0,4.136-1.2c.346-.129.668-.246.973-.357a9.93,9.93,0,0,1,.967-.287.987.987,0,0,1,.844.451.582.582,0,0,1,.193.551,3.676,3.676,0,0,1-.193.615,1.6,1.6,0,0,1-.615.644,8.791,8.791,0,0,1-.809.387,36.6,36.6,0,0,1-6.146,1.553q-.905.132-1.845.229C276.513,530.819,275.9,530.9,275.295,530.983Zm-5.372-4.142a3.258,3.258,0,0,1-.516.422.976.976,0,0,0-.387.416c-.346.434-.674.873-.973,1.33s-.58.914-.844,1.389a10.691,10.691,0,0,0-1.1,2.426c-.264.844-.5,1.693-.715,2.554a10.068,10.068,0,0,0-.158,1.488,3.174,3.174,0,0,0,.287,1.488q.4,1.23,1.617.65c.088-.047.264-.152.521-.328a12.086,12.086,0,0,0,2.912-3.65,13.839,13.839,0,0,0,1.353-4.5l-.937-.937a3.541,3.541,0,0,1-.545-.68,2.424,2.424,0,0,1-.293-.808C270.086,527.779,270.01,527.357,269.922,526.841Z" transform="translate(-30.583 -65.35)" fill="#fff"/>
      <path id="_2" data-name="2" d="M316.631,528.193a7.9,7.9,0,0,0-1.037.644,11.592,11.592,0,0,0-1.775,1.617,20.012,20.012,0,0,0-1.523,1.939c-.258.393-.516.791-.773,1.2s-.539.809-.844,1.2a3.22,3.22,0,0,1-.973,1.037,1.627,1.627,0,0,1-1.582.416,1.823,1.823,0,0,1-1.26-1.131,3.112,3.112,0,0,1-.293-1.131,4.158,4.158,0,0,1,.094-1.131c.176-.949.34-1.886.486-2.818s.293-1.863.422-2.812c.041-.217.076-.422.1-.615s.053-.463.094-.808a2.866,2.866,0,0,1-.68.451.838.838,0,0,0-.422.393c-.732.773-1.441,1.553-2.133,2.326s-1.359,1.594-2,2.461q-1.292,1.678-2.49,3.392t-2.426,3.4c-.135.176-.252.346-.357.516a1.734,1.734,0,0,1-.422.457,1.511,1.511,0,0,1-1.582.451,1.607,1.607,0,0,1-1.137-1.23,2.962,2.962,0,0,1-.064-1.617q.325-2.135.68-4.236a26.575,26.575,0,0,1,1.066-4.171c.346-1,.691-1.951,1.037-2.883s.691-1.887,1.037-2.877c.129-.346.258-.668.387-.973a3.365,3.365,0,0,1,.516-.838,4.689,4.689,0,0,1,1.23-1.359,1.7,1.7,0,0,1,2.267-.193,1.923,1.923,0,0,1,.967,2.068c-.088.346-.158.656-.223.937a5.1,5.1,0,0,1-.293.873c-.3.779-.6,1.564-.908,2.361s-.621,1.588-.967,2.361a3.011,3.011,0,0,0-.193,1.424l1.16-1.359c.861-.99,1.74-1.992,2.619-3.006s1.758-2.015,2.625-3.006c.3-.3.6-.6.9-.879a7.016,7.016,0,0,1,.973-.744,2.589,2.589,0,0,1,2.554-.287,2.364,2.364,0,0,1,1.324,2.168,9.363,9.363,0,0,1-.064,1.939c-.082.644-.17,1.295-.258,1.939a3.853,3.853,0,0,1-.193.744,1,1,0,0,0,.193.873c.475-.387.92-.773,1.33-1.16s.826-.756,1.26-1.1c.346-.258.68-.521,1-.779a10.7,10.7,0,0,1,1-.709,2.485,2.485,0,0,1,2.138-.293,2.877,2.877,0,0,1,1.617,1.523,5.288,5.288,0,0,1,.58,1.746q.132.905.193,1.81c.047.475.064.926.064,1.359s.023.861.064,1.295a10.447,10.447,0,0,0,.457,2.2,1.284,1.284,0,0,0,1.875.779,8.348,8.348,0,0,0,1.617-.844,6.324,6.324,0,0,0,1.359-1.23q2.522-2.847,5.109-5.888c.17-.211.346-.416.516-.615a4.73,4.73,0,0,1,.586-.545,1.3,1.3,0,0,1,1.553,0c.475.3.557.8.258,1.488a10.717,10.717,0,0,1-.715,1.16c-1.119,1.207-2.238,2.408-3.363,3.591s-2.261,2.384-3.427,3.591a12.1,12.1,0,0,1-1.2,1.037,11.05,11.05,0,0,1-1.394.9,4.693,4.693,0,0,1-3.427.586A4.772,4.772,0,0,1,318.7,535.5a10.288,10.288,0,0,1-.937-1.84,12.423,12.423,0,0,1-.551-1.91c-.129-.563-.234-1.119-.322-1.682s-.17-1.189-.258-1.875Z" transform="translate(-43.974 -63.984)" fill="#fff"/>
      <path id="_3" data-name="3" d="M340.822,537.544q1.169-3.559,2.361-7.112t2.426-7.118c-.082-.129-.146-.234-.193-.322a.85.85,0,0,0-.193-.258,1.475,1.475,0,0,1-.644-1.137,2.811,2.811,0,0,1,.322-1.26,3.42,3.42,0,0,1,.322-.615q.193-.29.387-.615c.434-.685.855-1.359,1.265-2s.826-1.312,1.26-2c.732-1.037,1.529-1.4,2.4-1.1q1.424.519,1.1,2.4a13.832,13.832,0,0,1-.58,2.2l-1.553,5.044a1.936,1.936,0,0,0-.064,1.1,6.444,6.444,0,0,1,.516-.58,2.971,2.971,0,0,0,.457-.586q1.292-1.872,2.748-3.656a45.531,45.531,0,0,1,3.07-3.392,17.833,17.833,0,0,1,1.523-1.359c.539-.434,1.066-.867,1.582-1.295a5.905,5.905,0,0,1,1.424-.779,4.025,4.025,0,0,1,2.818-.129,3.773,3.773,0,0,1,2.1,1.881,5.987,5.987,0,0,1,.715,3.556c-.129.9-.27,1.822-.422,2.748a21.578,21.578,0,0,1-.615,2.683,45.066,45.066,0,0,1-4.4,10.095,17.058,17.058,0,0,1-4.787,5.173,6.827,6.827,0,0,1-5.044,1.166,4.517,4.517,0,0,1-4.078-3.75c-.129-.867-.258-1.728-.387-2.59a10.676,10.676,0,0,0-2.068,3.363q-2.074,6.143-4.207,12.2T336.1,561.612q-1.353,3.946-2.683,7.827t-3.006,7.7a26.152,26.152,0,0,1-1.681,3.492,3.977,3.977,0,0,1-.844,1.166,1.6,1.6,0,0,1-2.783-.9,9.253,9.253,0,0,1,.064-2.461q.264-1.617.516-3.2t.586-3.2q1.424-6.213,3.07-12.227t3.849-11.969a52.158,52.158,0,0,1,3.3-7.183,11.267,11.267,0,0,1,1.816-2.455,1.971,1.971,0,0,1,1-.715,7.05,7.05,0,0,1,1.517.064Zm-12.163,33.641c.346-.041.533-.182.551-.422a2.362,2.362,0,0,1,.164-.674c.434-1.213.85-2.408,1.26-3.591s.809-2.361,1.2-3.527q1.881-5.238,3.691-10.352t3.621-10.288c.129-.34.258-.7.387-1.066a3.841,3.841,0,0,0,.2-1.324c-.217.217-.381.387-.486.516a4.194,4.194,0,0,0-.293.387c-.562,1-1.119,1.974-1.681,2.947s-1.078,1.974-1.553,3.005a90.757,90.757,0,0,0-4.013,11.132q-1.617,5.624-2.847,11.513a3.333,3.333,0,0,0-.123.873v.937a.358.358,0,0,0-.07.258ZM348.52,530.5c.475.217.844.4,1.1.551a2.143,2.143,0,0,1,.58.451.924.924,0,0,1,.2.615v2.232a9.946,9.946,0,0,0,.064,1.2,1.486,1.486,0,0,0,.609,1.037,1.579,1.579,0,0,0,1.2.193,3.055,3.055,0,0,0,1.939-1.037c.434-.475.85-.961,1.26-1.453a14.153,14.153,0,0,0,1.137-1.588,30.452,30.452,0,0,0,2.426-4.722,45.192,45.192,0,0,0,1.711-5.044,19.69,19.69,0,0,0,.521-2.2l.387-2.2a3.124,3.124,0,0,0,.094-1,1.392,1.392,0,0,0-.545-.937c-.521.211-1.014.428-1.488.644a13.61,13.61,0,0,0-2.525,1.845,24.057,24.057,0,0,0-2.2,2.3,40.194,40.194,0,0,0-3.1,3.914c-.949,1.359-1.881,2.748-2.783,4.171a3.534,3.534,0,0,0-.258.451C348.761,530.086,348.649,530.28,348.52,530.5Z" transform="translate(-56.845 -61.436)" fill="#fff"/>
      <path id="_4" data-name="4" d="M411.8,531.96c-.3.346-.557.639-.773.873s-.434.463-.645.68q-1.107,1.037-2.2,2.1c-.732.715-1.488,1.388-2.262,2.039a5.134,5.134,0,0,1-1.1.744,8.938,8.938,0,0,1-1.166.486,2.944,2.944,0,0,1-2.232-.1A3.2,3.2,0,0,1,399.9,537.2a5.562,5.562,0,0,1-.422-1.137,4.769,4.769,0,0,1-.164-1.2,13.589,13.589,0,0,1,.264-3.814,18.672,18.672,0,0,1,1.418-4.4,24.43,24.43,0,0,1,2.332-3.949,13.385,13.385,0,0,1,3.75-3.427,6.019,6.019,0,0,1,3.433-1.1,3.964,3.964,0,0,1,3.943,2.976,7.386,7.386,0,0,1,.193,3.234,4.487,4.487,0,0,0-.158.844,4.388,4.388,0,0,1-.164.838,3.273,3.273,0,0,1,1.424,1.717,8.421,8.421,0,0,1,.387,2.168,18.271,18.271,0,0,0,.387,2.847.918.918,0,0,0,1.23.773c.346-.082.68-.17,1.008-.258a2.938,2.938,0,0,0,.937-.451c.516-.346,1.031-.715,1.553-1.1a10.3,10.3,0,0,0,1.424-1.295,10.844,10.844,0,0,0,1.482-1.681c.434-.6.885-1.183,1.359-1.746.346-.387.7-.768,1.072-1.131s.721-.721,1.066-1.066a.822.822,0,0,1,.9,0,.946.946,0,0,1,.328.387.613.613,0,0,1,.064.451,4.117,4.117,0,0,1-1.037,2.4c-.861,1.119-1.781,2.22-2.748,3.3a21.9,21.9,0,0,1-3.2,2.912,13.543,13.543,0,0,1-1.553,1.1,9.384,9.384,0,0,1-1.746.844,4.417,4.417,0,0,1-3.363.193,4.864,4.864,0,0,1-2.461-2.39c-.17-.3-.334-.609-.486-.908s-.334-.691-.551-1.166Zm-1.488-9.187a8.6,8.6,0,0,0-2.906,2.267,22.3,22.3,0,0,0-2.01,2.912,28.019,28.019,0,0,0-1.582,3.492,8.358,8.358,0,0,0-.486,3.814.986.986,0,0,0,.873-.129c.234-.17.463-.322.68-.451a30.883,30.883,0,0,0,6.6-7.247,2.22,2.22,0,0,1-.352-1.1c-.023-.393-.035-.779-.035-1.166a4.514,4.514,0,0,0-.164-1.2,3.259,3.259,0,0,0-.615-1.2Z" transform="translate(-87.589 -63.679)" fill="#fff"/>
      <path id="_5" data-name="5" d="M454.689,526.431c-.346.258-.633.475-.873.644s-.463.346-.68.516a36.066,36.066,0,0,0-3.005,2.976q-1.388,1.556-2.683,3.17c-.475.6-.937,1.2-1.394,1.781s-.937,1.154-1.453,1.717a6.261,6.261,0,0,1-1.681,1.488,1.854,1.854,0,0,1-1.846.158,1.939,1.939,0,0,1-1.066-1.517,3.111,3.111,0,0,1-.065-1.424q.132-1.81.387-3.427a48.605,48.605,0,0,1,1.295-5.05,35.786,35.786,0,0,1,1.939-4.851c.258-.475.516-.949.779-1.424a9.275,9.275,0,0,1,.9-1.359,6,6,0,0,1,1.553-1.295,1.652,1.652,0,0,1,2.074.2,1.673,1.673,0,0,1,.58,1.875,4.043,4.043,0,0,1-.357.937c-.146.281-.31.568-.486.873a36.97,36.97,0,0,0-2.361,4.658q-1,2.39-1.9,4.851a2.455,2.455,0,0,0-.164.68,4.4,4.4,0,0,1-.164.808,1.734,1.734,0,0,0,1.008-.615c.193-.281.4-.551.609-.808q1.687-1.81,3.269-3.621t3.269-3.627a11.048,11.048,0,0,1,1.1-1.066c.393-.322.779-.656,1.166-1a6.269,6.269,0,0,1,1.359-.9,2.315,2.315,0,0,1,3.492,1.617,5.24,5.24,0,0,1,.064,1.875q-.123,1.424-.387,2.847a20.126,20.126,0,0,0-.129,5.044,2.97,2.97,0,0,0,1.066,2.232,2.857,2.857,0,0,0,2.49-.229,10.266,10.266,0,0,0,3.949-2.783q1.292-1.485,2.49-2.906t2.426-2.912c.176-.217.334-.434.486-.65a2.715,2.715,0,0,1,.551-.58,1.852,1.852,0,0,1,1.037-.586,1.215,1.215,0,0,1,1.066.264.9.9,0,0,1,.352.967c-.041.217-.094.445-.158.68a1.815,1.815,0,0,1-.357.68q-1.872,2.267-3.72,4.464a35.565,35.565,0,0,1-4.107,4.142,13.716,13.716,0,0,1-3.685,2.133,5.955,5.955,0,0,1-1.553.422,5.824,5.824,0,0,1-1.623-.035,4.612,4.612,0,0,1-3.685-2.648,12.855,12.855,0,0,1-.809-2.2,11.6,11.6,0,0,1-.357-2.261c-.041-.732-.053-1.5-.029-2.3S454.689,527.38,454.689,526.431Z" transform="translate(-104.403 -63.71)" fill="#fff"/>
      <path id="_6" data-name="6" d="M513.258,518.565a.894.894,0,0,1,.387,1.225,7.92,7.92,0,0,1-.516,1.1c-.176.217-.346.422-.521.615s-.363.4-.58.615q-2.39,2.39-4.822,4.658t-5.138,4.335a21.91,21.91,0,0,1-1.846,1.295,10.521,10.521,0,0,1-2.039.967,5.355,5.355,0,0,1-4.429.035,5.082,5.082,0,0,1-2.689-3.4,13.124,13.124,0,0,1-.287-1.553,10.879,10.879,0,0,0-.229-1.295,41.171,41.171,0,0,1,.973-5.56,25.115,25.115,0,0,1,1.81-4.986,4.972,4.972,0,0,1,2.326-2.519,2.262,2.262,0,0,1,2.332-.129,2.345,2.345,0,0,1,1,.9,1.794,1.794,0,0,1,.228,1.295,8.2,8.2,0,0,1-.228,1.166,8.006,8.006,0,0,1-.422,1.166q-.712,1.81-1.424,3.586t-1.424,3.591a13.98,13.98,0,0,0-.516,1.652,5.659,5.659,0,0,0-.129,1.711,1.906,1.906,0,0,0,.68,1.459,1.5,1.5,0,0,0,1.523.158,12.042,12.042,0,0,0,2.906-1.418,34.655,34.655,0,0,0,4.142-3.14q1.942-1.714,3.755-3.591,1.222-1.424,2.648-2.847c.217-.211.445-.416.68-.615s.463-.375.68-.545a1.042,1.042,0,0,1,1.166.064Zm-14.623-7.505a1.637,1.637,0,0,1-1.224-1.295l-.2-.779a22.118,22.118,0,0,1,.68-2.713,7.913,7.913,0,0,1,1.266-2.4,1.943,1.943,0,0,1,1.295-.838,1.847,1.847,0,0,1,1.424.322,1.685,1.685,0,0,1,.873,1.031,2.127,2.127,0,0,1-.1,1.488,49.89,49.89,0,0,1-2.525,4.4A1.286,1.286,0,0,1,498.635,511.059Z" transform="translate(-125.382 -57.396)" fill="#fff"/>
      <path id="_7" data-name="7" d="M533.456,530.983q-.58,1.353-1.1,2.584t-1.031,2.461a13.648,13.648,0,0,1-3.5,4.529,5.678,5.678,0,0,1-2.455,1.389,4.239,4.239,0,0,1-2.332-.064,4,4,0,0,1-1.9-1.359A5.929,5.929,0,0,1,520,537.967a10.439,10.439,0,0,1-.129-3.234,19.089,19.089,0,0,1,2.654-8.15,12.313,12.313,0,0,1,1.324-1.816,9.9,9.9,0,0,1,1.652-1.482,4.582,4.582,0,0,1,1.553-.908,2.752,2.752,0,0,1,2.261.164,2.874,2.874,0,0,1,1.23,1.9.6.6,0,0,1,.064.293.692.692,0,0,0,.065.293c.346.211.68.41,1,.58a2.262,2.262,0,0,1,.808.715,4.353,4.353,0,0,1,.586.937c.17.363.363.744.58,1.131a24.549,24.549,0,0,0,4.142-.229,15.854,15.854,0,0,0,4.142-1.2c.346-.129.668-.246.967-.357a10.059,10.059,0,0,1,.973-.287.97.97,0,0,1,.838.451.573.573,0,0,1,.2.551,4.363,4.363,0,0,1-.2.615,1.625,1.625,0,0,1-.609.644c-.24.129-.51.258-.814.387a36.53,36.53,0,0,1-6.14,1.553c-.609.088-1.219.164-1.846.229s-1.242.141-1.845.228Zm-5.367-4.142a3.293,3.293,0,0,1-.521.422,1.054,1.054,0,0,0-.387.416c-.346.434-.668.873-.972,1.33s-.58.914-.838,1.389a10.716,10.716,0,0,0-1.1,2.426c-.258.844-.5,1.693-.709,2.554a10.9,10.9,0,0,0-.164,1.488,3.179,3.179,0,0,0,.293,1.488q.387,1.23,1.617.65c.088-.047.258-.152.516-.328a12,12,0,0,0,2.912-3.65,13.847,13.847,0,0,0,1.359-4.5c-.387-.387-.7-.7-.937-.937a3.384,3.384,0,0,1-.551-.68,2.563,2.563,0,0,1-.293-.808C528.247,527.779,528.171,527.357,528.089,526.841Z" transform="translate(-137.495 -65.35)" fill="#fff"/>
      <path id="_8" data-name="8" d="M567.429,526.431c-.34.258-.633.475-.873.644s-.463.346-.68.516a36.076,36.076,0,0,0-3.006,2.976q-1.389,1.556-2.683,3.17c-.475.6-.937,1.2-1.395,1.781s-.937,1.154-1.453,1.717a6.262,6.262,0,0,1-1.681,1.488,1.854,1.854,0,0,1-1.846.158,1.939,1.939,0,0,1-1.066-1.517,3.109,3.109,0,0,1-.064-1.424q.132-1.81.387-3.427a48.652,48.652,0,0,1,1.295-5.05,35.779,35.779,0,0,1,1.939-4.851c.258-.475.516-.949.779-1.424a9.275,9.275,0,0,1,.9-1.359,6.1,6.1,0,0,1,1.553-1.295,1.652,1.652,0,0,1,2.074.2,1.673,1.673,0,0,1,.58,1.875,4.048,4.048,0,0,1-.357.937c-.146.281-.311.568-.48.873a36.237,36.237,0,0,0-2.367,4.658q-1,2.39-1.9,4.851a2.449,2.449,0,0,0-.164.68,4.39,4.39,0,0,1-.164.808,1.734,1.734,0,0,0,1.008-.615q.29-.422.615-.808,1.679-1.81,3.263-3.621t3.269-3.627a10.494,10.494,0,0,1,1.1-1.066q.58-.483,1.16-1a6.266,6.266,0,0,1,1.359-.9,2.315,2.315,0,0,1,3.492,1.617,5.241,5.241,0,0,1,.065,1.875q-.123,1.424-.387,2.847a20.121,20.121,0,0,0-.129,5.044,2.989,2.989,0,0,0,1.066,2.232,2.857,2.857,0,0,0,2.49-.229,10.267,10.267,0,0,0,3.949-2.783q1.292-1.485,2.49-2.906t2.426-2.912c.176-.217.334-.434.486-.65a2.713,2.713,0,0,1,.551-.58,1.852,1.852,0,0,1,1.037-.586,1.211,1.211,0,0,1,1.066.264.915.915,0,0,1,.357.967c-.047.217-.1.445-.164.68a1.817,1.817,0,0,1-.357.68q-1.872,2.267-3.72,4.464a35.579,35.579,0,0,1-4.107,4.142,13.718,13.718,0,0,1-3.685,2.133,5.955,5.955,0,0,1-1.552.422,5.779,5.779,0,0,1-1.617-.035,4.612,4.612,0,0,1-3.691-2.648,12.859,12.859,0,0,1-.809-2.2,11.6,11.6,0,0,1-.357-2.261c-.041-.732-.053-1.5-.029-2.3S567.429,527.38,567.429,526.431Z" transform="translate(-151.092 -63.71)" fill="#fff"/>
    </g>
  </g>
</svg>
