<svg xmlns="http://www.w3.org/2000/svg" width="211.815" height="67.047" viewBox="0 0 211.815 67.047">
  <g id="Group_54461" data-name="Group 54461" transform="translate(-263.888 -360.2)">
    <g id="Group_51573" data-name="Group 51573" transform="translate(263.888 360.2)">
      <path id="Path_81" data-name="Path 81" d="M397.6,408.485l4-5.413a3.759,3.759,0,0,1,6.045,4.47l-5.538,7.491s-2.695,5.008-2.985,9.262a31,31,0,0,0-.075,3.551,10.163,10.163,0,0,0,4.113-3.284l9.726-13.143a10.276,10.276,0,0,0-16.525-12.22l-4,5.409a3.259,3.259,0,0,0,5.24,3.877Z" transform="translate(-375.058 -383.01)" fill="#fff" fill-rule="evenodd"/>
      <path id="Path_82" data-name="Path 82" d="M366.624,408.733l-4.077-5.354a3.758,3.758,0,0,0-5.978,4.556l5.641,7.408s2.765,4.969,3.115,9.219a30.949,30.949,0,0,1,.122,3.551,10.183,10.183,0,0,1-4.156-3.225l-9.906-13.005a10.275,10.275,0,0,1,16.348-12.452l1.332,1.929,1.32-1.654a3.4,3.4,0,0,0,5.161,3.979l-3.783,5.114c.027-.039.055-.079.079-.118a2.988,2.988,0,0,1-.648.672A3.261,3.261,0,0,1,366.624,408.733Zm4.937-3.751c.016.02.028.039.043.059C371.589,405.021,371.577,405,371.562,404.982Z" transform="translate(-349.29 -383.222)" fill="#fff" fill-rule="evenodd"/>
      <circle id="Ellipse_3" data-name="Ellipse 3" cx="3.795" cy="3.795" r="3.795" transform="matrix(0.804, 0.595, -0.595, 0.804, 9.366, 0.053)" fill="#fff"/>
      <circle id="Ellipse_4" data-name="Ellipse 4" cx="3.795" cy="3.795" r="3.795" transform="matrix(0.804, 0.595, -0.595, 0.804, 29.717, 0)" fill="#fff"/>
    </g>
    <g id="Group_54468" data-name="Group 54468" transform="translate(314.886 364.875)">
      <path id="Path_83" data-name="Path 83" d="M204.1,479.153q.881-1.592,1.633-3.1c.5-1,.962-2.039,1.379-3.1a8.983,8.983,0,0,0,.523-1.527,8.55,8.55,0,0,0,.231-1.61c-.14-.14-.273-.174-.4-.106s-.231.133-.315.189a10.429,10.429,0,0,0-1.925,1.19q-.875.693-1.717,1.444a37.646,37.646,0,0,0-3.2,3.266q-1.489,1.717-2.827,3.6-1.211,1.677-2.277,3.391t-2.031,3.6a26.759,26.759,0,0,0-1.379,3.179,22.69,22.69,0,0,0-.921,3.391,8.137,8.137,0,0,0-.125,3.179,4.117,4.117,0,0,0,1.023,2.365,4.337,4.337,0,0,0,2.281,1.277,8.4,8.4,0,0,0,4.813-.167,28.313,28.313,0,0,0,3.429-1.4,18.019,18.019,0,0,0,3.138-1.948q1.467-1.086,2.785-2.258a32.963,32.963,0,0,0,2.531-2.512,23.115,23.115,0,0,0,1.758-2.152,17.529,17.529,0,0,0,1.421-2.365,9.916,9.916,0,0,0,.69-1.527,8.7,8.7,0,0,0,.4-1.61c.027-.167.057-.337.083-.5a3.453,3.453,0,0,1,.125-.5,1.277,1.277,0,0,1,.273-.546.8.8,0,0,1,.523-.25.848.848,0,0,1,.648.083,1.683,1.683,0,0,1,.481.462,2.572,2.572,0,0,1,.421,1.754c-.057.364-.129.72-.212,1.069a3.986,3.986,0,0,1-.375.981q-.46.8-.879,1.569a13.508,13.508,0,0,1-.921,1.485,35.928,35.928,0,0,1-5,5.567,41.73,41.73,0,0,1-6.006,4.479,22.51,22.51,0,0,1-4.9,2.217,11.608,11.608,0,0,1-5.775.458,6.25,6.25,0,0,1-5.188-4.35,8.027,8.027,0,0,1-.523-2.448,13.419,13.419,0,0,1,.106-2.49,26.24,26.24,0,0,1,2.175-7.325,52.638,52.638,0,0,1,4.1-7.048,46.96,46.96,0,0,1,5.188-6.256,25.793,25.793,0,0,1,4.9-3.85,8.711,8.711,0,0,1,.962-.523c.337-.152.686-.315,1.046-.481a5.123,5.123,0,0,1,1.258-.375,2.2,2.2,0,0,1,2.05.356,2.313,2.313,0,0,1,.584,2.027,13.983,13.983,0,0,1-.273,1.781,10.888,10.888,0,0,1-.523,1.694c-.193.531-.394,1.053-.606,1.569a16.158,16.158,0,0,1-.69,1.485q-.836,1.717-1.717,3.369t-1.754,3.327a3.351,3.351,0,0,1-.4.606c-.155.178-.315.352-.481.523a1.111,1.111,0,0,1-1.341.25,1.213,1.213,0,0,1-.792-1.254,5.343,5.343,0,0,1,.834-2.888,1.447,1.447,0,0,1,.712-.565,2.886,2.886,0,0,1,.963-.148Z" transform="translate(-187.785 -466.928)" fill="#fff"/>
      <path id="_1" data-name="1" d="M270.47,527.887c-.254.584-.489,1.141-.712,1.671l-.671,1.592a8.816,8.816,0,0,1-2.258,2.929,3.7,3.7,0,0,1-1.592.9,2.73,2.73,0,0,1-1.5-.042,2.6,2.6,0,0,1-1.235-.879,3.831,3.831,0,0,1-.731-1.652,6.639,6.639,0,0,1-.083-2.092,12.346,12.346,0,0,1,1.717-5.271,7.693,7.693,0,0,1,.856-1.175,6.256,6.256,0,0,1,1.069-.959,2.909,2.909,0,0,1,1-.587,1.789,1.789,0,0,1,1.466.106,1.859,1.859,0,0,1,.8,1.232.435.435,0,0,1,.042.189.4.4,0,0,0,.042.19c.224.136.44.265.648.375a1.53,1.53,0,0,1,.523.462,2.668,2.668,0,0,1,.375.606c.114.235.239.481.379.731a15.916,15.916,0,0,0,2.679-.148,10.188,10.188,0,0,0,2.675-.773c.224-.083.432-.159.629-.231a6.428,6.428,0,0,1,.625-.186.639.639,0,0,1,.546.292.376.376,0,0,1,.125.356,2.378,2.378,0,0,1-.125.4,1.034,1.034,0,0,1-.4.417,5.7,5.7,0,0,1-.523.25,23.668,23.668,0,0,1-3.975,1q-.585.085-1.194.148C271.258,527.781,270.861,527.83,270.47,527.887ZM267,525.208a2.107,2.107,0,0,1-.333.273.632.632,0,0,0-.25.269c-.224.28-.436.565-.629.86s-.375.591-.546.9a6.914,6.914,0,0,0-.709,1.569c-.171.546-.322,1.1-.462,1.652a6.516,6.516,0,0,0-.1.963,2.053,2.053,0,0,0,.186.963q.256.8,1.046.421c.057-.03.171-.1.337-.212a7.818,7.818,0,0,0,1.883-2.361,8.951,8.951,0,0,0,.875-2.91l-.606-.606a2.292,2.292,0,0,1-.352-.44,1.568,1.568,0,0,1-.189-.523C267.1,525.814,267.052,525.541,267,525.208Z" transform="translate(-233.651 -501.266)" fill="#fff"/>
      <path id="_2" data-name="2" d="M308.627,524.916a5.12,5.12,0,0,0-.671.417,7.5,7.5,0,0,0-1.148,1.046,12.924,12.924,0,0,0-.985,1.254c-.167.254-.333.512-.5.777s-.349.523-.546.773a2.08,2.08,0,0,1-.629.671,1.052,1.052,0,0,1-1.023.269,1.179,1.179,0,0,1-.815-.731,2.012,2.012,0,0,1-.189-.731,2.689,2.689,0,0,1,.061-.731c.114-.614.22-1.22.315-1.823s.189-1.205.273-1.819c.027-.14.049-.273.064-.4s.034-.3.061-.523a1.859,1.859,0,0,1-.44.292.542.542,0,0,0-.273.254c-.474.5-.932,1-1.379,1.5s-.879,1.031-1.3,1.592q-.836,1.086-1.61,2.194t-1.569,2.2c-.087.114-.163.224-.231.333a1.121,1.121,0,0,1-.273.3.977.977,0,0,1-1.023.292,1.04,1.04,0,0,1-.735-.8,1.915,1.915,0,0,1-.042-1.046q.21-1.381.44-2.74a17.187,17.187,0,0,1,.69-2.7c.224-.644.447-1.262.671-1.864s.447-1.22.671-1.861c.083-.224.167-.432.25-.629a2.177,2.177,0,0,1,.333-.542,3.032,3.032,0,0,1,.8-.879,1.1,1.1,0,0,1,1.466-.125,1.244,1.244,0,0,1,.625,1.338c-.057.224-.1.424-.144.606a3.3,3.3,0,0,1-.19.565c-.2.5-.39,1.012-.587,1.527s-.4,1.027-.625,1.527a1.948,1.948,0,0,0-.125.921l.75-.879c.557-.64,1.125-1.288,1.694-1.944s1.137-1.3,1.7-1.944c.193-.2.39-.387.584-.568a4.551,4.551,0,0,1,.629-.481,1.674,1.674,0,0,1,1.652-.186,1.529,1.529,0,0,1,.856,1.4,6.056,6.056,0,0,1-.042,1.254c-.053.417-.11.837-.167,1.254a2.486,2.486,0,0,1-.125.481.65.65,0,0,0,.125.565c.307-.25.595-.5.86-.75s.534-.489.815-.712c.224-.167.44-.337.648-.5a6.9,6.9,0,0,1,.648-.459,1.608,1.608,0,0,1,1.383-.189,1.861,1.861,0,0,1,1.046.985,3.421,3.421,0,0,1,.375,1.129q.085.585.125,1.171c.03.307.042.6.042.879s.015.557.042.837a6.761,6.761,0,0,0,.3,1.421.83.83,0,0,0,1.213.5,5.394,5.394,0,0,0,1.046-.546,4.088,4.088,0,0,0,.879-.8q1.631-1.842,3.3-3.808c.11-.136.224-.269.333-.4a3.064,3.064,0,0,1,.379-.352.839.839,0,0,1,1,0c.307.193.36.515.167.963a6.933,6.933,0,0,1-.462.75c-.724.781-1.447,1.557-2.175,2.323s-1.463,1.542-2.217,2.323a7.833,7.833,0,0,1-.773.671,7.141,7.141,0,0,1-.9.583,3.035,3.035,0,0,1-2.217.379,3.087,3.087,0,0,1-1.842-1.342,6.65,6.65,0,0,1-.606-1.19,8.03,8.03,0,0,1-.356-1.235c-.083-.364-.152-.724-.208-1.088s-.11-.769-.167-1.213Z" transform="translate(-253.732 -499.216)" fill="#fff"/>
      <path id="_3" data-name="3" d="M335.251,528.792q.756-2.3,1.527-4.6t1.569-4.6c-.053-.083-.095-.152-.125-.208a.55.55,0,0,0-.125-.167.954.954,0,0,1-.417-.735,1.819,1.819,0,0,1,.208-.815,2.211,2.211,0,0,1,.208-.4q.125-.187.25-.4c.28-.443.553-.879.818-1.3s.534-.849.815-1.3c.474-.671.989-.906,1.55-.712q.921.335.709,1.55a8.945,8.945,0,0,1-.375,1.421l-1,3.263a1.252,1.252,0,0,0-.042.712,4.153,4.153,0,0,1,.333-.375,1.922,1.922,0,0,0,.3-.379q.836-1.211,1.777-2.365a29.459,29.459,0,0,1,1.986-2.194,11.559,11.559,0,0,1,.985-.879c.349-.28.69-.561,1.023-.837a3.821,3.821,0,0,1,.921-.5,2.6,2.6,0,0,1,1.823-.083,2.44,2.44,0,0,1,1.357,1.216,3.872,3.872,0,0,1,.462,2.3c-.083.584-.174,1.179-.273,1.777a13.96,13.96,0,0,1-.4,1.735,29.146,29.146,0,0,1-2.846,6.529,11.033,11.033,0,0,1-3.1,3.346,4.415,4.415,0,0,1-3.263.754,2.921,2.921,0,0,1-2.637-2.425c-.083-.561-.167-1.118-.25-1.675a6.9,6.9,0,0,0-1.338,2.175q-1.341,3.973-2.721,7.889t-2.762,7.844q-.875,2.552-1.736,5.063t-1.944,4.979a16.918,16.918,0,0,1-1.088,2.258,2.571,2.571,0,0,1-.546.754,1.037,1.037,0,0,1-1.8-.584,5.987,5.987,0,0,1,.042-1.591q.171-1.046.333-2.073t.379-2.069q.921-4.019,1.986-7.908t2.49-7.742a33.722,33.722,0,0,1,2.133-4.646,7.286,7.286,0,0,1,1.175-1.588,1.275,1.275,0,0,1,.648-.462,4.557,4.557,0,0,1,.981.042Zm-7.867,21.759c.224-.026.345-.117.356-.273a1.527,1.527,0,0,1,.106-.436c.28-.784.549-1.557.815-2.323s.523-1.527.773-2.281q1.216-3.388,2.387-6.7t2.342-6.654c.083-.22.167-.451.25-.69a2.484,2.484,0,0,0,.129-.856c-.14.14-.246.25-.315.333a2.73,2.73,0,0,0-.189.25c-.364.644-.724,1.277-1.088,1.906s-.7,1.277-1,1.944a58.7,58.7,0,0,0-2.6,7.2q-1.046,3.638-1.842,7.446a2.158,2.158,0,0,0-.08.565v.606a.231.231,0,0,0-.045.167Zm12.846-26.317c.307.14.546.258.712.356a1.385,1.385,0,0,1,.375.292.6.6,0,0,1,.129.4v1.444a6.432,6.432,0,0,0,.042.773.961.961,0,0,0,.394.671,1.021,1.021,0,0,0,.777.125,1.976,1.976,0,0,0,1.254-.671c.28-.307.549-.621.815-.94a9.148,9.148,0,0,0,.735-1.027,19.7,19.7,0,0,0,1.569-3.054,29.221,29.221,0,0,0,1.107-3.263,12.739,12.739,0,0,0,.337-1.425l.25-1.421a2.02,2.02,0,0,0,.061-.648.9.9,0,0,0-.352-.606c-.337.136-.656.276-.962.417a8.8,8.8,0,0,0-1.633,1.194,15.565,15.565,0,0,0-1.425,1.485,26,26,0,0,0-2,2.531c-.614.879-1.216,1.777-1.8,2.7a2.3,2.3,0,0,0-.167.292C340.386,523.968,340.314,524.093,340.231,524.233Z" transform="translate(-273.036 -495.395)" fill="#fff"/>
      <path id="_4" data-name="4" d="M407.383,527.093c-.193.224-.36.413-.5.565s-.28.3-.417.44q-.716.671-1.425,1.36c-.474.462-.962.9-1.463,1.319a3.32,3.32,0,0,1-.712.481,5.789,5.789,0,0,1-.754.315,1.9,1.9,0,0,1-1.444-.065,2.067,2.067,0,0,1-.981-1.023,3.6,3.6,0,0,1-.273-.735,3.09,3.09,0,0,1-.106-.773,8.788,8.788,0,0,1,.171-2.467,12.073,12.073,0,0,1,.917-2.846,15.808,15.808,0,0,1,1.508-2.554,8.657,8.657,0,0,1,2.425-2.217,3.892,3.892,0,0,1,2.221-.712,2.564,2.564,0,0,1,2.55,1.925,4.777,4.777,0,0,1,.125,2.092,2.9,2.9,0,0,0-.1.546,2.838,2.838,0,0,1-.106.542,2.117,2.117,0,0,1,.921,1.11,5.445,5.445,0,0,1,.25,1.4,11.815,11.815,0,0,0,.25,1.842.594.594,0,0,0,.8.5c.224-.053.44-.11.652-.167a1.9,1.9,0,0,0,.606-.292c.333-.223.667-.462,1-.712a6.655,6.655,0,0,0,.921-.837,7.011,7.011,0,0,0,.959-1.088c.28-.39.572-.765.879-1.129.224-.25.455-.5.693-.731s.466-.466.69-.69a.532.532,0,0,1,.584,0,.612.612,0,0,1,.212.25.4.4,0,0,1,.042.292,2.663,2.663,0,0,1-.671,1.55c-.557.724-1.152,1.436-1.777,2.133a14.161,14.161,0,0,1-2.073,1.883,8.758,8.758,0,0,1-1,.709,6.068,6.068,0,0,1-1.129.546,2.857,2.857,0,0,1-2.175.125,3.145,3.145,0,0,1-1.592-1.546c-.11-.2-.216-.394-.315-.587s-.216-.447-.356-.754Zm-.963-5.942a5.563,5.563,0,0,0-1.88,1.466,14.432,14.432,0,0,0-1.3,1.883,18.126,18.126,0,0,0-1.023,2.258,5.406,5.406,0,0,0-.315,2.467.637.637,0,0,0,.565-.083c.152-.11.3-.208.44-.292a19.974,19.974,0,0,0,4.267-4.687,1.436,1.436,0,0,1-.227-.709c-.015-.254-.023-.5-.023-.754a2.923,2.923,0,0,0-.106-.773A2.108,2.108,0,0,0,406.42,521.151Z" transform="translate(-319.142 -498.759)" fill="#fff"/>
      <path id="_5" data-name="5" d="M449.462,523.543c-.224.167-.409.307-.565.417s-.3.224-.44.333a23.352,23.352,0,0,0-1.944,1.925q-.9,1.006-1.735,2.05c-.307.39-.606.777-.9,1.152s-.606.747-.94,1.11a4.05,4.05,0,0,1-1.088.962,1.2,1.2,0,0,1-1.194.1,1.254,1.254,0,0,1-.69-.982,2.012,2.012,0,0,1-.042-.921q.085-1.171.25-2.217a31.453,31.453,0,0,1,.837-3.266,23.154,23.154,0,0,1,1.254-3.138c.167-.307.333-.614.5-.921a5.987,5.987,0,0,1,.584-.879,3.88,3.88,0,0,1,1-.837,1.068,1.068,0,0,1,1.341.129,1.082,1.082,0,0,1,.375,1.213,2.615,2.615,0,0,1-.231.606c-.095.182-.2.368-.315.565A23.925,23.925,0,0,0,444,523.96q-.648,1.546-1.232,3.138a1.587,1.587,0,0,0-.106.439,2.852,2.852,0,0,1-.106.523,1.121,1.121,0,0,0,.652-.4c.125-.182.258-.356.394-.523q1.091-1.171,2.114-2.342t2.115-2.346a7.157,7.157,0,0,1,.709-.69c.254-.208.5-.424.754-.648a4.054,4.054,0,0,1,.879-.584,1.5,1.5,0,0,1,2.258,1.046,3.388,3.388,0,0,1,.042,1.213q-.08.921-.25,1.842a13.027,13.027,0,0,0-.083,3.263,1.921,1.921,0,0,0,.69,1.444,1.848,1.848,0,0,0,1.61-.148,6.641,6.641,0,0,0,2.554-1.8q.836-.961,1.61-1.88t1.569-1.883c.114-.14.216-.28.314-.421a1.753,1.753,0,0,1,.356-.375,1.2,1.2,0,0,1,.671-.379.786.786,0,0,1,.69.171.583.583,0,0,1,.227.625c-.027.14-.061.288-.1.44a1.175,1.175,0,0,1-.231.44q-1.211,1.466-2.406,2.887a23,23,0,0,1-2.656,2.679,8.872,8.872,0,0,1-2.383,1.379,3.855,3.855,0,0,1-1,.273,3.769,3.769,0,0,1-1.05-.023,2.983,2.983,0,0,1-2.383-1.713,8.329,8.329,0,0,1-.523-1.425,7.5,7.5,0,0,1-.231-1.463c-.026-.474-.034-.97-.019-1.485S449.462,524.157,449.462,523.543Z" transform="translate(-344.359 -498.805)" fill="#fff"/>
      <path id="_6" data-name="6" d="M505.238,513.07a.579.579,0,0,1,.25.792,5.127,5.127,0,0,1-.334.712c-.114.14-.224.273-.337.4s-.235.258-.375.4q-1.546,1.546-3.119,3.013t-3.323,2.8a14.213,14.213,0,0,1-1.194.837,6.8,6.8,0,0,1-1.319.625,3.463,3.463,0,0,1-2.865.023,3.287,3.287,0,0,1-1.739-2.2,8.485,8.485,0,0,1-.186-1,7.025,7.025,0,0,0-.148-.838,26.631,26.631,0,0,1,.629-3.6,16.245,16.245,0,0,1,1.171-3.225,3.215,3.215,0,0,1,1.5-1.629,1.463,1.463,0,0,1,1.508-.083,1.516,1.516,0,0,1,.648.584,1.16,1.16,0,0,1,.148.837,5.294,5.294,0,0,1-.148.754,5.166,5.166,0,0,1-.273.754q-.46,1.171-.921,2.319t-.921,2.323a9.045,9.045,0,0,0-.333,1.069,3.658,3.658,0,0,0-.083,1.106,1.232,1.232,0,0,0,.44.944.972.972,0,0,0,.985.1,7.788,7.788,0,0,0,1.88-.917,22.412,22.412,0,0,0,2.679-2.031q1.256-1.108,2.429-2.323.79-.921,1.713-1.842c.14-.136.288-.269.44-.4s.3-.243.44-.352a.674.674,0,0,1,.754.042Zm-9.458-4.854a1.059,1.059,0,0,1-.792-.837l-.129-.5a14.3,14.3,0,0,1,.44-1.755,5.119,5.119,0,0,1,.818-1.55,1.257,1.257,0,0,1,.837-.542,1.194,1.194,0,0,1,.921.208,1.09,1.09,0,0,1,.565.667,1.376,1.376,0,0,1-.064.963,32.264,32.264,0,0,1-1.633,2.846A.832.832,0,0,1,495.779,508.216Z" transform="translate(-375.822 -489.337)" fill="#fff"/>
      <path id="_7" data-name="7" d="M528.632,527.887q-.375.876-.712,1.671t-.667,1.592a8.829,8.829,0,0,1-2.262,2.929,3.673,3.673,0,0,1-1.588.9,2.742,2.742,0,0,1-1.508-.042,2.59,2.59,0,0,1-1.232-.879,3.834,3.834,0,0,1-.735-1.652,6.751,6.751,0,0,1-.083-2.092,12.346,12.346,0,0,1,1.717-5.271,7.959,7.959,0,0,1,.856-1.175,6.4,6.4,0,0,1,1.069-.959,2.962,2.962,0,0,1,1-.587,1.78,1.78,0,0,1,1.463.106,1.859,1.859,0,0,1,.8,1.232.388.388,0,0,1,.042.189.448.448,0,0,0,.042.19c.224.136.44.265.648.375a1.464,1.464,0,0,1,.523.462,2.817,2.817,0,0,1,.379.606c.11.235.235.481.375.731a15.893,15.893,0,0,0,2.679-.148,10.253,10.253,0,0,0,2.679-.773l.625-.231a6.508,6.508,0,0,1,.629-.186.628.628,0,0,1,.542.292.371.371,0,0,1,.129.356,2.816,2.816,0,0,1-.129.4,1.051,1.051,0,0,1-.394.417c-.155.083-.33.167-.527.25a23.626,23.626,0,0,1-3.971,1c-.394.057-.788.106-1.194.148s-.8.091-1.194.148Zm-3.471-2.679a2.121,2.121,0,0,1-.337.273.682.682,0,0,0-.25.269c-.224.28-.432.565-.629.86s-.375.591-.542.9a6.932,6.932,0,0,0-.712,1.569c-.167.546-.322,1.1-.458,1.652a7.047,7.047,0,0,0-.106.963,2.056,2.056,0,0,0,.189.963q.25.8,1.046.421c.057-.03.167-.1.333-.212a7.76,7.76,0,0,0,1.883-2.361,8.957,8.957,0,0,0,.879-2.91c-.25-.25-.455-.451-.606-.606a2.189,2.189,0,0,1-.356-.44,1.658,1.658,0,0,1-.189-.523C525.263,525.814,525.214,525.541,525.161,525.208Z" transform="translate(-393.986 -501.266)" fill="#fff"/>
      <path id="_8" data-name="8" d="M562.2,523.543c-.22.167-.409.307-.565.417s-.3.224-.44.333a23.342,23.342,0,0,0-1.944,1.925q-.9,1.006-1.736,2.05c-.307.39-.606.777-.9,1.152s-.606.747-.94,1.11a4.05,4.05,0,0,1-1.088.962,1.2,1.2,0,0,1-1.194.1,1.254,1.254,0,0,1-.69-.982,2.011,2.011,0,0,1-.042-.921q.085-1.171.25-2.217a31.484,31.484,0,0,1,.837-3.266,23.146,23.146,0,0,1,1.254-3.138c.167-.307.333-.614.5-.921a5.992,5.992,0,0,1,.584-.879,3.944,3.944,0,0,1,1-.837,1.068,1.068,0,0,1,1.341.129,1.082,1.082,0,0,1,.375,1.213,2.623,2.623,0,0,1-.231.606c-.095.182-.2.368-.311.565a23.448,23.448,0,0,0-1.531,3.013q-.648,1.546-1.232,3.138a1.587,1.587,0,0,0-.106.439,2.847,2.847,0,0,1-.106.523,1.121,1.121,0,0,0,.652-.4q.188-.273.4-.523,1.086-1.171,2.111-2.342t2.114-2.346a6.808,6.808,0,0,1,.712-.69q.375-.313.75-.648a4.051,4.051,0,0,1,.879-.584,1.5,1.5,0,0,1,2.258,1.046,3.389,3.389,0,0,1,.042,1.213q-.08.921-.25,1.842a13.016,13.016,0,0,0-.083,3.263,1.933,1.933,0,0,0,.69,1.444,1.848,1.848,0,0,0,1.61-.148,6.642,6.642,0,0,0,2.554-1.8q.836-.961,1.61-1.88t1.569-1.883c.114-.14.216-.28.314-.421a1.752,1.752,0,0,1,.356-.375,1.2,1.2,0,0,1,.671-.379.784.784,0,0,1,.69.171.592.592,0,0,1,.231.625c-.03.14-.064.288-.106.44a1.176,1.176,0,0,1-.231.44q-1.211,1.466-2.406,2.887a23,23,0,0,1-2.656,2.679,8.873,8.873,0,0,1-2.383,1.379,3.855,3.855,0,0,1-1,.273,3.74,3.74,0,0,1-1.046-.023,2.983,2.983,0,0,1-2.387-1.713,8.328,8.328,0,0,1-.523-1.425,7.5,7.5,0,0,1-.231-1.463c-.027-.474-.034-.97-.019-1.485S562.2,524.157,562.2,523.543Z" transform="translate(-414.376 -498.805)" fill="#fff"/>
    </g>
  </g>
</svg>
